<svg width="16" height="17" viewBox="0 0 16 17" fill="none" xmlns="http://www.w3.org/2000/svg">
<path fill-rule="evenodd" clip-rule="evenodd" d="M3 13.4004L3 3.40039L13 3.40039L13 13.4004H11V15.4004H14C14.5523 15.4004 15 14.9527 15 14.4004L15 2.40039C15 1.84811 14.5523 1.40039 14 1.40039L2 1.40039C1.44771 1.40039 1 1.84811 1 2.40039L1 14.4004C1 14.9527 1.44771 15.4004 2 15.4004H5V13.4004H3ZM11.2929 11.1075L12.7071 9.69328L8 4.98618L3.29289 9.69328L4.70711 11.1075L7 8.8146V15.4004L9 15.4004V8.8146L11.2929 11.1075Z" fill="#3D0700"/>
</svg>
