<svg width="92" height="80" viewBox="0 0 92 80" fill="none" xmlns="http://www.w3.org/2000/svg">
<path d="M79.3398 75.3333C81.55 75.3333 83.6696 74.4554 85.2324 72.8926C86.7952 71.3298 87.6732 69.2101 87.6732 67V25.3333C87.6732 23.1232 86.7952 21.0036 85.2324 19.4408C83.6696 17.878 81.55 17 79.3398 17H46.4232C45.0295 17.0137 43.6546 16.6776 42.4244 16.0224C41.1942 15.3673 40.148 14.4141 39.3815 13.25L36.0065 8.25C35.2477 7.09779 34.2147 6.152 33.0003 5.49748C31.7858 4.84297 30.4278 4.50023 29.0482 4.5H12.6732C10.463 4.5 8.34342 5.37797 6.78062 6.94078C5.21782 8.50358 4.33984 10.6232 4.33984 12.8333V67C4.33984 69.2101 5.21782 71.3298 6.78062 72.8926C8.34342 74.4554 10.463 75.3333 12.6732 75.3333H79.3398Z" stroke="#AD471F" stroke-width="8.33333" stroke-linecap="round" stroke-linejoin="round"/>
</svg>
